<?xml version="1.0" encoding="UTF-8"?>
<!DOCTYPE svg PUBLIC "-//W3C//DTD SVG 1.1//EN" "http://www.w3.org/Graphics/SVG/1.1/DTD/svg11.dtd">
<svg xmlns="http://www.w3.org/2000/svg" version="1.1" width="1088px" height="1088px" style="shape-rendering:geometricPrecision; text-rendering:geometricPrecision; image-rendering:optimizeQuality; fill-rule:evenodd; clip-rule:evenodd" xmlns:xlink="http://www.w3.org/1999/xlink">
<g><path style="opacity:0.957" fill="#0c569e" d="M 512.5,-0.5 C 533.167,-0.5 553.833,-0.5 574.5,-0.5C 737.043,12.3467 869.543,81.68 972,207.5C 1043.61,300.477 1082.11,405.81 1087.5,523.5C 1087.5,536.5 1087.5,549.5 1087.5,562.5C 1076.83,740.714 1000.16,882.547 857.5,988C 768.866,1049.6 670.532,1082.77 562.5,1087.5C 549.5,1087.5 536.5,1087.5 523.5,1087.5C 349.883,1077.29 210.383,1003.62 105,866.5C 41.8251,779.49 6.65847,682.157 -0.5,574.5C -0.5,553.833 -0.5,533.167 -0.5,512.5C 13.2179,340.853 88.5513,203.686 225.5,101C 311.437,40.0741 407.103,6.24074 512.5,-0.5 Z M 524.5,20.5 C 707.322,19.3353 854.156,90.6686 965,234.5C 1047.62,350.663 1079.29,479.663 1060,621.5C 1032.69,778.746 952.524,900.579 819.5,987C 690.764,1064.3 553.431,1084.63 407.5,1048C 272.079,1009.25 167.579,930.085 94,810.5C 20.9369,683.053 2.60353,548.053 39,405.5C 74.1858,283.534 143.352,186.034 246.5,113C 330.405,56.0873 423.072,25.2539 524.5,20.5 Z"/></g>
<g><path style="opacity:1" fill="#38a3db" d="M 515.5,61.5 C 676.09,56.5739 808.923,114.241 914,234.5C 1001.68,343.484 1037.34,467.817 1021,607.5C 998.06,755.657 924.227,870.49 799.5,952C 687.435,1019.84 567.102,1040.51 438.5,1014C 288.806,977.278 178.973,890.445 109,753.5C 57.8198,643.516 47.8198,529.85 79,412.5C 121.612,271.564 209.112,169.064 341.5,105C 397.012,80.1221 455.012,65.6221 515.5,61.5 Z"/></g>
<g><path style="opacity:1" fill="#0a5498" d="M 512.5,91.5 C 654.089,85.7543 774.256,133.088 873,233.5C 967.479,337.613 1007.15,459.946 992,600.5C 970.212,743.836 898.379,854.003 776.5,931C 653.272,1001.4 524.272,1014.07 389.5,969C 262.031,919.865 172.531,832.031 121,705.5C 87.6366,615.495 82.3033,523.829 105,430.5C 144.834,289.003 231.667,187.836 365.5,127C 412.773,107.464 461.773,95.6304 512.5,91.5 Z"/></g>
<g><path style="opacity:1" fill="#38a4dc" d="M 524.5,114.5 C 526.5,114.5 528.5,114.5 530.5,114.5C 530.5,121.833 530.5,129.167 530.5,136.5C 528.5,136.5 526.5,136.5 524.5,136.5C 524.5,129.167 524.5,121.833 524.5,114.5 Z"/></g>
<g><path style="opacity:1" fill="#359dd6" d="M 535.5,113.5 C 537.833,113.5 540.167,113.5 542.5,113.5C 542.5,121.167 542.5,128.833 542.5,136.5C 540.167,136.5 537.833,136.5 535.5,136.5C 535.5,128.833 535.5,121.167 535.5,113.5 Z"/></g>
<g><path style="opacity:1" fill="#3298d2" d="M 547.5,113.5 C 548.725,114.152 549.392,115.319 549.5,117C 548.88,121.82 548.38,126.653 548,131.5C 547.501,125.509 547.334,119.509 547.5,113.5 Z"/></g>
<g><path style="opacity:1" fill="#37a0d9" d="M 508.5,114.5 C 512.167,114.5 515.833,114.5 519.5,114.5C 519.5,121.833 519.5,129.167 519.5,136.5C 516.319,136.742 513.319,136.742 510.5,136.5C 509.665,129.989 508.665,123.489 507.5,117C 507.743,116.098 508.077,115.265 508.5,114.5 Z"/></g>
<g><path style="opacity:1" fill="#369fd7" d="M 573.5,115.5 C 575.833,115.5 578.167,115.5 580.5,115.5C 579.962,122.822 579.629,130.155 579.5,137.5C 577.167,137.5 574.833,137.5 572.5,137.5C 572.833,130.167 573.167,122.833 573.5,115.5 Z"/></g>
<g><path style="opacity:1" fill="#38a3db" d="M 585.5,116.5 C 587.5,116.5 589.5,116.5 591.5,116.5C 591.521,123.854 591.187,131.187 590.5,138.5C 588.533,138.739 586.699,138.406 585,137.5C 584.772,130.501 584.939,123.501 585.5,116.5 Z"/></g>
<g><path style="opacity:1" fill="#37a1da" d="M 487.5,117.5 C 489.833,117.5 492.167,117.5 494.5,117.5C 495.729,124.441 496.396,131.441 496.5,138.5C 494.738,138.357 493.071,138.691 491.5,139.5C 489.887,132.207 488.554,124.873 487.5,117.5 Z"/></g>
<g><path style="opacity:1" fill="#37a2da" d="M 596.5,117.5 C 600.481,118.021 604.481,118.354 608.5,118.5C 607.596,125.923 606.263,133.257 604.5,140.5C 601.455,140.492 598.455,140.159 595.5,139.5C 596.248,132.191 596.582,124.858 596.5,117.5 Z"/></g>
<g><path style="opacity:1" fill="#37a1d9" d="M 476.5,118.5 C 478.833,118.5 481.167,118.5 483.5,118.5C 483.885,125.861 484.552,133.194 485.5,140.5C 483.5,140.5 481.5,140.5 479.5,140.5C 478.314,133.197 477.314,125.863 476.5,118.5 Z"/></g>
<g><path style="opacity:1" fill="#37a1da" d="M 466.5,120.5 C 468.167,120.5 469.833,120.5 471.5,120.5C 472.897,127.444 473.397,134.444 473,141.5C 471.301,142.406 469.467,142.739 467.5,142.5C 466.12,135.131 465.787,127.798 466.5,120.5 Z"/></g>
<g><path style="opacity:1" fill="#37a1d9" d="M 621.5,121.5 C 623.96,121.699 626.293,122.365 628.5,123.5C 626.782,130.091 625.448,136.758 624.5,143.5C 622.011,143.702 619.677,143.202 617.5,142C 619.067,135.229 620.4,128.395 621.5,121.5 Z"/></g>
<g><path style="opacity:1" fill="#37a2da" d="M 454.5,122.5 C 456.5,122.5 458.5,122.5 460.5,122.5C 461.523,129.482 462.023,136.482 462,143.5C 459.379,144.991 456.545,145.658 453.5,145.5C 452.04,138.452 450.373,131.452 448.5,124.5C 450.786,124.405 452.786,123.738 454.5,122.5 Z"/></g>
<g><path style="opacity:1" fill="#36a0d8" d="M 633.5,123.5 C 635.379,124.341 637.379,124.675 639.5,124.5C 638.63,132.087 636.964,139.42 634.5,146.5C 632.929,145.691 631.262,145.357 629.5,145.5C 630.371,138.064 631.704,130.731 633.5,123.5 Z"/></g>
<g><path style="opacity:1" fill="#37a1d9" d="M 644.5,126.5 C 646.5,126.833 648.5,127.167 650.5,127.5C 649.587,135.076 647.92,142.409 645.5,149.5C 643.16,149.134 641.493,147.967 640.5,146C 641.516,139.421 642.849,132.921 644.5,126.5 Z"/></g>
<g><path style="opacity:1" fill="#37a1da" d="M 429.5,128.5 C 431.5,128.5 433.5,128.5 435.5,128.5C 437.47,135.436 439.137,142.436 440.5,149.5C 438.738,149.357 437.071,149.691 435.5,150.5C 432.564,143.422 430.564,136.089 429.5,128.5 Z"/></g>
<g><path style="opacity:1" fill="#37a2da" d="M 655.5,129.5 C 659.049,129.439 662.382,130.273 665.5,132C 666.059,132.725 666.392,133.558 666.5,134.5C 664.384,139.733 662.551,145.066 661,150.5C 656.975,153.358 653.808,152.525 651.5,148C 652.88,141.83 654.214,135.663 655.5,129.5 Z"/></g>
<g><path style="opacity:1" fill="#36a0d9" d="M 419.5,131.5 C 421.766,131.141 423.599,131.808 425,133.5C 427.227,139.678 428.727,146.011 429.5,152.5C 427.738,152.357 426.071,152.691 424.5,153.5C 422,147.345 420,141.012 418.5,134.5C 418.685,133.416 419.018,132.416 419.5,131.5 Z"/></g>
<g><path style="opacity:1" fill="#36a0d9" d="M 409.5,134.5 C 411.451,134.227 412.951,134.893 414,136.5C 415.502,142.017 417.002,147.517 418.5,153C 417.731,155.401 416.064,156.901 413.5,157.5C 411.32,150.446 408.987,143.446 406.5,136.5C 407.602,135.824 408.602,135.158 409.5,134.5 Z"/></g>
<g><path style="opacity:1" fill="#36a0d8" d="M 679.5,136.5 C 682.314,136.403 684.314,137.569 685.5,140C 683.059,146.043 681.059,152.21 679.5,158.5C 676.843,158.838 674.51,158.171 672.5,156.5C 674.847,149.812 677.181,143.146 679.5,136.5 Z"/></g>
<g><path style="opacity:1" fill="#37a2da" d="M 398.5,138.5 C 400.144,138.286 401.644,138.62 403,139.5C 404.657,145.13 406.157,150.796 407.5,156.5C 406.632,159.656 404.465,161.323 401,161.5C 396.973,155.951 393.807,149.784 391.5,143C 393.563,140.975 395.896,139.475 398.5,138.5 Z"/></g>
<g><path style="opacity:1" fill="#37a1da" d="M 690.5,140.5 C 693.314,140.403 695.314,141.569 696.5,144C 694.059,150.043 692.059,156.21 690.5,162.5C 687.941,162.61 685.608,161.944 683.5,160.5C 685.847,153.812 688.181,147.146 690.5,140.5 Z"/></g>
<g><path style="opacity:1" fill="#36a0d9" d="M 701.5,144.5 C 703.757,144.962 705.757,145.962 707.5,147.5C 705.026,154.256 702.36,160.923 699.5,167.5C 697.205,166.864 695.539,165.531 694.5,163.5C 696.643,157.067 698.977,150.733 701.5,144.5 Z"/></g>
<g><path style="opacity:1" fill="#36a0d8" d="M 375.5,147.5 C 376.822,147.33 377.989,147.663 379,148.5C 381.56,154.621 384.394,160.621 387.5,166.5C 385.344,168.009 383.01,169.009 380.5,169.5C 377.843,162.534 375.176,155.534 372.5,148.5C 373.791,148.737 374.791,148.404 375.5,147.5 Z"/></g>
<g><path style="opacity:1" fill="#37a2da" d="M 712.5,148.5 C 716.171,150.336 719.838,152.169 723.5,154C 719.952,159.594 716.785,165.427 714,171.5C 710.526,172.351 707.36,171.517 704.5,169C 707.268,162.194 709.935,155.361 712.5,148.5 Z"/></g>
<g><path style="opacity:1" fill="#37a1d9" d="M 366.5,151.5 C 367.376,151.369 368.043,151.702 368.5,152.5C 371.167,158.5 373.833,164.5 376.5,170.5C 374.839,173.092 372.672,173.759 370,172.5C 367.362,166.725 364.862,160.891 362.5,155C 363.686,153.588 365.019,152.421 366.5,151.5 Z"/></g>
<g><path style="opacity:1" fill="#36a0d9" d="M 355.5,156.5 C 356.496,156.414 357.329,156.748 358,157.5C 360.705,163.742 363.538,169.908 366.5,176C 364.751,177.292 362.918,178.458 361,179.5C 357.577,172.985 354.41,166.319 351.5,159.5C 352.901,158.479 354.235,157.479 355.5,156.5 Z"/></g>
<g><path style="opacity:1" fill="#37a1da" d="M 735.5,159.5 C 737.518,160.175 739.184,161.341 740.5,163C 737.81,169.55 734.476,175.716 730.5,181.5C 728.453,180.815 726.786,179.649 725.5,178C 728.711,171.742 732.045,165.576 735.5,159.5 Z"/></g>
<g><path style="opacity:1" fill="#37a1da" d="M 345.5,161.5 C 346.376,161.369 347.043,161.702 347.5,162.5C 350.362,168.422 353.029,174.422 355.5,180.5C 353.772,182.877 351.439,184.544 348.5,185.5C 344.141,179.795 340.141,173.795 336.5,167.5C 339.738,165.725 342.738,163.725 345.5,161.5 Z"/></g>
<g><path style="opacity:1" fill="#f6f7fb" d="M 169.5,518.5 C 168.513,523.305 168.179,528.305 168.5,533.5C 198.852,534.159 228.852,533.492 258.5,531.5C 261.167,531.5 263.833,531.5 266.5,531.5C 266.5,534.167 266.5,536.833 266.5,539.5C 263.833,539.5 261.167,539.5 258.5,539.5C 228.185,537.508 197.518,536.841 166.5,537.5C 165.883,537.389 165.383,537.056 165,536.5C 167.949,428.121 208.783,336.954 287.5,263C 352.283,204.833 428.283,172.5 515.5,166C 514.501,168.761 512.501,170.094 509.5,170C 394.599,183.177 303.432,236.344 236,329.5C 196.48,386.218 174.314,449.218 169.5,518.5 Z"/></g>
<g><path style="opacity:1" fill="#f6f6fa" d="M 920.5,537.5 C 890.148,536.841 860.148,537.508 830.5,539.5C 827.833,539.5 825.167,539.5 822.5,539.5C 822.5,536.833 822.5,534.167 822.5,531.5C 825.167,531.5 827.833,531.5 830.5,531.5C 844.651,532.833 859.151,533.499 874,533.5C 888.671,533.5 903.171,533.167 917.5,532.5C 911.91,416.485 864.244,321.985 774.5,249C 715.678,203.272 649.011,176.938 574.5,170C 573.167,168.667 571.833,167.333 570.5,166C 695.27,177.105 792.436,234.272 862,337.5C 900.753,398.1 920.753,464.433 922,536.5C 921.617,537.056 921.117,537.389 920.5,537.5 Z"/></g>
<g><path style="opacity:1" fill="#37a1d9" d="M 745.5,164.5 C 747.613,165.548 749.28,167.048 750.5,169C 747.213,175.073 744.047,181.239 741,187.5C 738.863,186.521 737.029,185.188 735.5,183.5C 739.101,177.298 742.434,170.964 745.5,164.5 Z"/></g>
<g><path style="opacity:1" fill="#37a1d9" d="M 755.5,170.5 C 757.636,171.403 759.636,172.569 761.5,174C 757.945,180.285 754.278,186.452 750.5,192.5C 748.668,191.752 747.001,190.752 745.5,189.5C 748.591,182.982 751.925,176.649 755.5,170.5 Z"/></g>
<g><path style="opacity:1" fill="#36a0d9" d="M 322.5,174.5 C 323.822,174.33 324.989,174.663 326,175.5C 329.375,181.085 332.875,186.585 336.5,192C 334.833,193.167 333.167,194.333 331.5,195.5C 327.017,189.881 323.017,183.881 319.5,177.5C 320.77,176.712 321.77,175.712 322.5,174.5 Z"/></g>
<g><path style="opacity:1" fill="#37a2da" d="M 765.5,176.5 C 769.202,178.024 772.536,180.19 775.5,183C 771.811,189.241 767.311,194.741 762,199.5C 759.559,198.365 757.392,196.865 755.5,195C 758.711,188.742 762.045,182.576 765.5,176.5 Z"/></g>
<g><path style="opacity:1" fill="#36a0d9" d="M 314.5,179.5 C 318.601,185.517 322.601,191.683 326.5,198C 325.183,199.659 323.517,200.826 321.5,201.5C 317.141,195.795 313.141,189.795 309.5,183.5C 311.419,182.388 313.086,181.054 314.5,179.5 Z"/></g>
<g><path style="opacity:1" fill="#f3f4f9" d="M 503.5,180.5 C 504.525,180.897 504.692,181.563 504,182.5C 503.255,183.99 502.088,184.99 500.5,185.5C 386.279,201.659 298.112,257.993 236,354.5C 204.936,405.859 187.436,461.526 183.5,521.5C 211.226,522.023 238.892,521.356 266.5,519.5C 266.5,522.167 266.5,524.833 266.5,527.5C 237.558,525.637 208.558,524.97 179.5,525.5C 185.809,423.057 226.809,337.557 302.5,269C 360.518,219.329 427.518,189.829 503.5,180.5 Z"/></g>
<g><path style="opacity:1" fill="#f4f5f9" d="M 905.5,525.5 C 880.144,524.843 855.144,525.509 830.5,527.5C 828.167,527.5 825.833,527.5 823.5,527.5C 823.5,525.167 823.5,522.833 823.5,520.5C 826.279,520.279 828.946,520.612 831.5,521.5C 855.167,521.5 878.833,521.5 902.5,521.5C 893.897,410.775 845.897,321.608 758.5,254C 706.548,216.034 648.548,193.034 584.5,185C 583.833,184 583.167,183 582.5,182C 683.806,193.392 766.306,238.559 830,317.5C 877.224,378.317 902.891,447.317 907,524.5C 906.617,525.056 906.117,525.389 905.5,525.5 Z"/></g>
<g><path style="opacity:1" fill="#36a0d9" d="M 303.5,186.5 C 305.371,186.859 306.871,187.859 308,189.5C 310.416,194.001 313.083,198.334 316,202.5C 316.667,203.5 316.667,204.5 316,205.5C 314.488,206.257 313.154,207.257 312,208.5C 307.785,202.569 303.951,196.402 300.5,190C 301.544,188.826 302.544,187.659 303.5,186.5 Z"/></g>
<g><path style="opacity:1" fill="#36a1d9" d="M 786.5,190.5 C 788.609,191.391 790.609,192.558 792.5,194C 788,199.833 783.5,205.667 779,211.5C 777.365,210.274 775.865,208.941 774.5,207.5C 778.264,201.629 782.264,195.962 786.5,190.5 Z"/></g>
<g><path style="opacity:1" fill="#37a1da" d="M 295.5,192.5 C 299.601,198.517 303.601,204.683 307.5,211C 305.167,212.833 302.833,214.667 300.5,216.5C 295.605,211.057 290.938,205.39 286.5,199.5C 289.75,197.388 292.75,195.055 295.5,192.5 Z"/></g>
<g><path style="opacity:1" fill="#f7f7fb" d="M 258.5,517.5 C 238.194,515.512 217.527,514.845 196.5,515.5C 195.305,515.134 194.639,514.301 194.5,513C 207.66,394.943 264.326,304.61 364.5,242C 403.061,219.535 444.394,204.701 488.5,197.5C 493.354,197.699 493.687,199.199 489.5,202C 387.995,220.248 308.829,272.082 252,357.5C 221.645,404.397 204.145,455.731 199.5,511.5C 221.896,511.984 244.229,511.317 266.5,509.5C 266.5,512.167 266.5,514.833 266.5,517.5C 263.833,517.5 261.167,517.5 258.5,517.5 Z"/></g>
<g><path style="opacity:1" fill="#f6f7fa" d="M 890.5,515.5 C 870.139,514.845 850.139,515.512 830.5,517.5C 827.833,517.5 825.167,517.5 822.5,517.5C 822.5,514.833 822.5,512.167 822.5,509.5C 844.104,511.311 865.77,511.977 887.5,511.5C 872.968,391.863 813.968,301.697 710.5,241C 674.749,221.416 636.749,208.416 596.5,202C 595.055,200.29 594.222,198.456 594,196.5C 714.722,217.94 803.055,282.94 859,391.5C 875.466,426.445 886.132,463.111 891,501.5C 891.815,506.352 891.648,511.019 890.5,515.5 Z"/></g>
<g><path style="opacity:1" fill="#36a1d9" d="M 795.5,197.5 C 798.084,197.569 800.084,198.735 801.5,201C 797.878,205.745 794.378,210.578 791,215.5C 788.258,218.104 785.758,217.771 783.5,214.5C 787.525,208.815 791.525,203.149 795.5,197.5 Z"/></g>
<g><path style="opacity:1" fill="#36a0d9" d="M 804.5,203.5 C 806.886,204.373 808.886,205.873 810.5,208C 806.5,213.333 802.5,218.667 798.5,224C 795.906,224.449 793.906,223.449 792.5,221C 797.137,215.543 801.137,209.709 804.5,203.5 Z"/></g>
<g><path style="opacity:1" fill="#37a0d9" d="M 274.5,208.5 C 275.239,208.369 275.906,208.536 276.5,209C 281.021,214.02 285.355,219.187 289.5,224.5C 289.291,225.086 288.957,225.586 288.5,226C 286.945,227.289 285.279,227.956 283.5,228C 279.406,222.483 275.073,217.15 270.5,212C 271.731,210.595 273.064,209.429 274.5,208.5 Z"/></g>
<g><path style="opacity:1" fill="#37a2da" d="M 813.5,211.5 C 814.552,211.351 815.552,211.517 816.5,212C 818.709,214.378 821.042,216.545 823.5,218.5C 818.804,224.03 813.637,229.03 808,233.5C 805.702,232.039 803.535,230.372 801.5,228.5C 805.525,222.815 809.525,217.149 813.5,211.5 Z"/></g>
<g><path style="opacity:1" fill="#36a0d9" d="M 265.5,215.5 C 267.371,215.859 268.871,216.859 270,218.5C 273.333,222.5 276.667,226.5 280,230.5C 279.628,232.92 278.295,234.92 276,236.5C 271.667,231.5 267.333,226.5 263,221.5C 262.333,220.5 262.333,219.5 263,218.5C 264.045,217.627 264.878,216.627 265.5,215.5 Z"/></g>
<g><path style="opacity:1" fill="#37a1d9" d="M 257.5,222.5 C 262.134,227.305 266.634,232.305 271,237.5C 271.293,240.869 269.793,242.702 266.5,243C 261.403,237.943 257.237,232.443 254,226.5C 255.376,225.295 256.542,223.962 257.5,222.5 Z"/></g>
<g><path style="opacity:1" fill="#37a3db" d="M 832.5,227.5 C 834.886,228.373 836.886,229.873 838.5,232C 833.333,237.167 828.167,242.333 823,247.5C 821.5,246 820,244.5 818.5,243C 823.766,238.241 828.433,233.075 832.5,227.5 Z"/></g>
<g><path style="opacity:1" fill="#37a2da" d="M 248.5,230.5 C 254.171,235.459 259.171,241.125 263.5,247.5C 261.209,249.288 259.043,251.288 257,253.5C 251.351,249.018 246.184,244.018 241.5,238.5C 243.856,235.814 246.189,233.147 248.5,230.5 Z"/></g>
<g><path style="opacity:1" fill="#37a1da" d="M 841.5,235.5 C 843.296,236.793 844.963,238.293 846.5,240C 841.466,244.699 836.8,249.699 832.5,255C 830.08,254.628 828.08,253.295 826.5,251C 831.703,245.965 836.703,240.798 841.5,235.5 Z"/></g>
<g><path style="opacity:1" fill="#36a0d8" d="M 849.5,243.5 C 851.296,244.793 852.963,246.293 854.5,248C 849.987,254.189 844.654,259.189 838.5,263C 836.203,261.737 835.37,259.903 836,257.5C 840.703,252.965 845.203,248.298 849.5,243.5 Z"/></g>
<g><path style="opacity:1" fill="#37a1d9" d="M 230.5,248.5 C 236.587,252.32 242.087,256.987 247,262.5C 247.163,264.387 246.329,265.887 244.5,267C 242.369,266.602 240.369,265.602 238.5,264C 235.299,260.464 231.799,257.297 228,254.5C 228.483,252.463 229.316,250.463 230.5,248.5 Z"/></g>
<g><path style="opacity:1" fill="#37a1da" d="M 857.5,251.5 C 860.854,253.863 863.52,256.863 865.5,260.5C 861.673,264.157 857.673,267.657 853.5,271C 848.69,274.761 845.356,273.594 843.5,267.5C 847.817,261.851 852.483,256.517 857.5,251.5 Z"/></g>
<g><path style="opacity:1" fill="#36a0d8" d="M 222.5,257.5 C 223.552,257.351 224.552,257.517 225.5,258C 229.699,262.534 234.199,266.701 239,270.5C 239.162,273.166 237.995,275.166 235.5,276.5C 230.483,271.648 225.316,266.982 220,262.5C 220.058,260.565 220.891,258.898 222.5,257.5 Z"/></g>
<g><path style="opacity:1" fill="#37a1d9" d="M 215.5,265.5 C 221.294,270.123 226.961,274.956 232.5,280C 231.481,283.048 229.481,284.381 226.5,284C 222.301,279.466 217.801,275.299 213,271.5C 213.451,269.48 214.284,267.48 215.5,265.5 Z"/></g>
<g><path style="opacity:1" fill="#37a1d9" d="M 873.5,271.5 C 876.323,272.148 877.823,273.814 878,276.5C 872.85,281.073 867.517,285.406 862,289.5C 860.315,287.983 858.815,286.316 857.5,284.5C 862.877,280.113 868.21,275.78 873.5,271.5 Z"/></g>
<g><path style="opacity:1" fill="#37a1da" d="M 208.5,274.5 C 213.794,278.622 218.96,282.956 224,287.5C 224.263,292.231 222.096,294.731 217.5,295C 211.99,291.412 206.657,287.578 201.5,283.5C 204.084,280.651 206.417,277.651 208.5,274.5 Z"/></g>
<g><path style="opacity:1" fill="#37a1d9" d="M 880.5,280.5 C 883.323,281.148 884.823,282.814 885,285.5C 879.85,290.073 874.517,294.406 869,298.5C 866.551,297.094 865.551,295.094 866,292.5C 870.732,288.258 875.565,284.258 880.5,280.5 Z"/></g>
<g><path style="opacity:1" fill="#36a0d9" d="M 887.5,289.5 C 890.121,290.121 891.788,291.788 892.5,294.5C 887.118,299.217 881.451,303.55 875.5,307.5C 874.167,305.833 872.833,304.167 871.5,302.5C 876.903,298.148 882.237,293.814 887.5,289.5 Z"/></g>
<g><path style="opacity:1" fill="#369fd8" d="M 192.5,294.5 C 198.865,298.105 205.032,302.105 211,306.5C 210.602,308.631 209.602,310.631 208,312.5C 201.833,308.333 195.667,304.167 189.5,300C 191.16,298.512 192.16,296.679 192.5,294.5 Z"/></g>
<g><path style="opacity:1" fill="#37a2da" d="M 894.5,298.5 C 897.487,301.246 900.153,304.413 902.5,308C 898.833,310.333 895.167,312.667 891.5,315C 888.702,316.914 885.702,317.914 882.5,318C 880.74,315.971 879.573,313.804 879,311.5C 884.145,307.029 889.312,302.696 894.5,298.5 Z"/></g>
<g><path style="opacity:1" fill="#37a1d9" d="M 186.5,304.5 C 192.432,307.916 198.265,311.582 204,315.5C 204.436,317.936 203.603,319.936 201.5,321.5C 195.228,317.892 189.228,313.892 183.5,309.5C 184.26,307.64 185.26,305.973 186.5,304.5 Z"/></g>
<g><path style="opacity:1" fill="#bbc2dd" d="M 633.5,314.5 C 672.002,313.169 710.669,313.169 749.5,314.5C 749.376,315.107 749.043,315.44 748.5,315.5C 710.337,314.501 672.004,314.168 633.5,314.5 Z"/></g>
<g><path style="opacity:1" fill="#37a1d9" d="M 180.5,313.5 C 186.391,317.367 192.225,321.367 198,325.5C 198.115,327.938 197.115,329.938 195,331.5C 189.333,327.5 183.667,323.5 178,319.5C 178.451,317.48 179.284,315.48 180.5,313.5 Z"/></g>
<g><path style="opacity:1" fill="#fdfdfe" d="M 329.5,314.5 C 368.002,313.169 406.669,313.169 445.5,314.5C 459.986,336.813 474.652,358.979 489.5,381C 471.076,410.425 452.243,439.592 433,468.5C 398.725,416.929 364.225,365.595 329.5,314.5 Z"/></g>
<g><path style="opacity:1" fill="#fefefe" d="M 633.5,314.5 C 672.004,314.168 710.337,314.501 748.5,315.5C 698.053,390.885 647.72,466.385 597.5,542C 647.722,617.382 697.722,692.882 747.5,768.5C 709.67,769.499 671.67,769.832 633.5,769.5C 582.799,693.936 532.465,618.103 482.5,542C 532.962,466.241 583.295,390.407 633.5,314.5 Z"/></g>
<g><path style="opacity:1" fill="#37a1da" d="M 906.5,320.5 C 910.478,319.982 912.311,321.648 912,325.5C 906.75,328.541 901.583,331.708 896.5,335C 893.519,335.381 891.519,334.048 890.5,331C 896.07,327.725 901.403,324.225 906.5,320.5 Z"/></g>
<g><path style="opacity:1" fill="#37a1da" d="M 174.5,323.5 C 180.727,326.889 186.561,330.889 192,335.5C 191.673,338.542 190.34,341.209 188,343.5C 181.876,340.771 175.876,337.771 170,334.5C 170.361,330.434 171.861,326.768 174.5,323.5 Z"/></g>
<g><path style="opacity:1" fill="#36a0d9" d="M 914.5,329.5 C 916.054,330.914 917.388,332.581 918.5,334.5C 913.204,338.487 907.538,341.987 901.5,345C 900.365,345.749 899.365,345.583 898.5,344.5C 897.11,342.831 896.777,341.164 897.5,339.5C 903.394,336.392 909.061,333.059 914.5,329.5 Z"/></g>
<g><path style="opacity:1" fill="#37a0d9" d="M 919.5,339.5 C 922.153,340.649 923.32,342.649 923,345.5C 917.328,349.918 911.161,353.085 904.5,355C 902.755,353.308 902.422,351.475 903.5,349.5C 909.234,346.642 914.567,343.309 919.5,339.5 Z"/></g>
<g><path style="opacity:1" fill="#37a1d9" d="M 161.5,346.5 C 168.86,348.348 175.527,351.515 181.5,356C 181.154,358.214 179.988,359.714 178,360.5C 172.006,357.419 165.84,354.753 159.5,352.5C 159.604,350.297 160.27,348.297 161.5,346.5 Z"/></g>
<g><path style="opacity:1" fill="#37a1da" d="M 925.5,349.5 C 928.415,352.663 930.248,356.33 931,360.5C 924.638,363.455 918.138,366.122 911.5,368.5C 909.461,366.101 908.295,363.434 908,360.5C 913.813,356.683 919.647,353.017 925.5,349.5 Z"/></g>
<g><path style="opacity:1" fill="#37a1d9" d="M 156.5,356.5 C 163.737,358.785 170.403,362.118 176.5,366.5C 175.752,368.332 174.752,369.999 173.5,371.5C 167.009,368.422 160.675,365.088 154.5,361.5C 155.174,359.805 155.841,358.138 156.5,356.5 Z"/></g>
<g><path style="opacity:1" fill="#37a1d9" d="M 151.5,366.5 C 158.614,369.223 165.281,372.723 171.5,377C 170.662,381.587 168.329,382.587 164.5,380C 159.341,377.588 154.341,374.921 149.5,372C 150.464,370.275 151.131,368.441 151.5,366.5 Z"/></g>
<g><path style="opacity:1" fill="#37a1d9" d="M 935.5,372.5 C 938.083,373.985 939.416,376.318 939.5,379.5C 932.574,382.031 925.574,384.364 918.5,386.5C 917.769,384.401 917.769,382.401 918.5,380.5C 924.378,378.058 930.045,375.392 935.5,372.5 Z"/></g>
<g><path style="opacity:1" fill="#37a1da" d="M 146.5,377.5 C 153.973,379.569 160.973,382.736 167.5,387C 165.798,389.235 164.798,391.735 164.5,394.5C 156.962,393.267 149.962,390.767 143.5,387C 144.662,383.853 145.662,380.686 146.5,377.5 Z"/></g>
<g><path style="opacity:1" fill="#36a0d9" d="M 939.5,383.5 C 940.5,383.5 941.5,383.5 942.5,383.5C 943.333,385.752 943.333,387.919 942.5,390C 936.385,392.224 930.385,394.724 924.5,397.5C 922.953,396.232 921.953,394.565 921.5,392.5C 921.709,391.914 922.043,391.414 922.5,391C 928.257,388.45 933.923,385.95 939.5,383.5 Z"/></g>
<g><path style="opacity:1" fill="#37a1d9" d="M 943.5,394.5 C 947.252,395.306 948.252,397.472 946.5,401C 940.262,403.371 934.095,405.871 928,408.5C 926.477,406.17 925.977,403.836 926.5,401.5C 932.348,399.336 938.014,397.003 943.5,394.5 Z"/></g>
<g><path style="opacity:1" fill="#37a1d9" d="M 137.5,401.5 C 144.335,402.61 151.002,404.443 157.5,407C 158.333,409.081 158.333,411.248 157.5,413.5C 150.787,411.707 144.12,409.707 137.5,407.5C 136.481,405.54 136.481,403.54 137.5,401.5 Z"/></g>
<g><path style="opacity:1" fill="#37a2da" d="M 946.5,405.5 C 947.978,405.238 949.311,405.571 950.5,406.5C 951.346,409.548 952.346,412.548 953.5,415.5C 946.35,418.121 939.016,420.121 931.5,421.5C 931.538,418.819 930.871,416.319 929.5,414C 929.833,413.5 930.167,413 930.5,412.5C 936.1,410.532 941.434,408.198 946.5,405.5 Z"/></g>
<g><path style="opacity:1" fill="#369fd8" d="M 134.5,411.5 C 141.554,413.906 148.554,416.406 155.5,419C 154.782,420.987 153.782,422.821 152.5,424.5C 145.88,422.293 139.213,420.293 132.5,418.5C 132.767,416.035 133.434,413.701 134.5,411.5 Z"/></g>
<g><path style="opacity:1" fill="#369fd8" d="M 130.5,422.5 C 137.39,424.908 144.39,426.908 151.5,428.5C 151.662,430.527 151.495,432.527 151,434.5C 150.439,435.022 149.772,435.355 149,435.5C 142.572,433.19 136.072,431.19 129.5,429.5C 129.993,427.194 130.326,424.861 130.5,422.5 Z"/></g>
<g><path style="opacity:1" fill="#38a3db" d="M 954.5,429.5 C 958.143,430.119 959.143,432.119 957.5,435.5C 950.863,437.834 944.197,439.167 937.5,439.5C 936.319,437.802 936.319,436.135 937.5,434.5C 943.324,432.965 948.991,431.299 954.5,429.5 Z"/></g>
<g><path style="opacity:1" fill="#37a2da" d="M 127.5,433.5 C 134.18,435.56 140.847,437.726 147.5,440C 148.291,442.75 148.291,445.583 147.5,448.5C 140.415,448.041 133.415,447.041 126.5,445.5C 126.167,445 125.833,444.5 125.5,444C 126.489,440.553 127.156,437.053 127.5,433.5 Z"/></g>
<g><path style="opacity:1" fill="#37a2da" d="M 957.5,440.5 C 958.5,440.5 959.5,440.5 960.5,440.5C 960.92,442.674 960.92,444.674 960.5,446.5C 954.361,448.243 948.194,449.91 942,451.5C 940.033,450.507 938.866,448.84 938.5,446.5C 944.878,444.328 951.211,442.328 957.5,440.5 Z"/></g>
<g><path style="opacity:1" fill="#369fd8" d="M 959.5,451.5 C 960.675,451.281 961.675,451.614 962.5,452.5C 963.348,454.409 963.682,456.409 963.5,458.5C 956.742,459.752 950.075,461.418 943.5,463.5C 941.997,461.204 941.663,458.871 942.5,456.5C 948.324,454.965 953.991,453.299 959.5,451.5 Z"/></g>
<g><path style="opacity:1" fill="#369fd8" d="M 121.5,458.5 C 128.196,459.504 134.863,460.67 141.5,462C 143.25,463.754 143.917,465.921 143.5,468.5C 136.135,467.717 128.801,466.717 121.5,465.5C 121.5,463.167 121.5,460.833 121.5,458.5 Z"/></g>
<g><path style="opacity:1" fill="#37a2da" d="M 962.5,462.5 C 963.5,462.5 964.5,462.5 965.5,462.5C 966.162,466.466 966.495,470.466 966.5,474.5C 959.194,475.448 951.861,476.115 944.5,476.5C 944.492,473.455 944.159,470.455 943.5,467.5C 950.23,466.902 956.564,465.236 962.5,462.5 Z"/></g>
<g><path style="opacity:1" fill="#36a0d9" d="M 120.5,469.5 C 126.751,470.989 133.084,472.156 139.5,473C 141.25,474.754 141.917,476.921 141.5,479.5C 134.182,478.508 126.849,477.508 119.5,476.5C 119.298,474.05 119.631,471.717 120.5,469.5 Z"/></g>
<g><path style="opacity:1" fill="#36a0d8" d="M 118.5,481.5 C 125.491,482.582 132.491,483.582 139.5,484.5C 139.5,486.833 139.5,489.167 139.5,491.5C 132.551,490.12 125.551,488.953 118.5,488C 117.232,485.837 117.232,483.67 118.5,481.5 Z"/></g>
<g><path style="opacity:1" fill="#37a2da" d="M 959.5,488.5 C 962.833,488.5 966.167,488.5 969.5,488.5C 969.5,490.5 969.5,492.5 969.5,494.5C 962.167,495.167 954.833,495.833 947.5,496.5C 947.5,494.167 947.5,491.833 947.5,489.5C 951.702,489.817 955.702,489.483 959.5,488.5 Z"/></g>
<g><path style="opacity:1" fill="#37a1d9" d="M 116.5,492.5 C 123.73,494.149 131.063,495.149 138.5,495.5C 138.384,498.86 138.051,502.193 137.5,505.5C 130.183,504.882 122.849,504.549 115.5,504.5C 116.162,500.534 116.495,496.534 116.5,492.5 Z"/></g>
<g><path style="opacity:1" fill="#37a2da" d="M 964.5,499.5 C 966.5,499.5 968.5,499.5 970.5,499.5C 970.5,501.833 970.5,504.167 970.5,506.5C 963.465,507.112 956.465,507.112 949.5,506.5C 948.691,504.929 948.357,503.262 948.5,501.5C 954.034,501.332 959.367,500.665 964.5,499.5 Z"/></g>
<g><path style="opacity:1" fill="#37a1da" d="M 960.5,511.5 C 964.167,511.5 967.833,511.5 971.5,511.5C 971.5,513.5 971.5,515.5 971.5,517.5C 964.176,518.261 956.842,518.927 949.5,519.5C 949.5,517.167 949.5,514.833 949.5,512.5C 953.371,512.815 957.038,512.482 960.5,511.5 Z"/></g>
<g><path style="opacity:1" fill="#5371ab" d="M 196.5,515.5 C 217.527,514.845 238.194,515.512 258.5,517.5C 237.735,516.844 217.069,516.178 196.5,515.5 Z"/></g>
<g><path style="opacity:1" fill="#5572ab" d="M 890.5,515.5 C 870.598,516.178 850.598,516.845 830.5,517.5C 850.139,515.512 870.139,514.845 890.5,515.5 Z"/></g>
<g><path style="opacity:1" fill="#37a1d9" d="M 114.5,517.5 C 121.84,517.723 129.173,518.056 136.5,518.5C 136.5,520.5 136.5,522.5 136.5,524.5C 129.167,524.5 121.833,524.5 114.5,524.5C 114.5,522.167 114.5,519.833 114.5,517.5 Z"/></g>
<g><path style="opacity:1" fill="#a6b0d2" d="M 831.5,521.5 C 828.946,520.612 826.279,520.279 823.5,520.5C 823.5,522.833 823.5,525.167 823.5,527.5C 825.833,527.5 828.167,527.5 830.5,527.5C 828.052,528.473 825.385,528.806 822.5,528.5C 822.5,525.5 822.5,522.5 822.5,519.5C 826.012,518.945 829.012,519.612 831.5,521.5 Z"/></g>
<g><path style="opacity:1" fill="#37a1da" d="M 965.5,522.5 C 967.833,522.5 970.167,522.5 972.5,522.5C 972.5,526.5 972.5,530.5 972.5,534.5C 965.155,534.371 957.822,534.038 950.5,533.5C 950.5,530.5 950.5,527.5 950.5,524.5C 955.694,524.259 960.694,523.593 965.5,522.5 Z"/></g>
<g><path style="opacity:1" fill="#8695c2" d="M 905.5,525.5 C 880.598,526.176 855.598,526.842 830.5,527.5C 855.144,525.509 880.144,524.843 905.5,525.5 Z"/></g>
<g><path style="opacity:1" fill="#37a0d9" d="M 114.5,529.5 C 121.833,529.5 129.167,529.5 136.5,529.5C 136.5,531.833 136.5,534.167 136.5,536.5C 129.155,536.371 121.822,536.038 114.5,535.5C 114.5,533.5 114.5,531.5 114.5,529.5 Z"/></g>
<g><path style="opacity:1" fill="#5a75ae" d="M 169.5,518.5 C 169.5,523.167 169.5,527.833 169.5,532.5C 199.24,532.825 228.907,532.492 258.5,531.5C 228.852,533.492 198.852,534.159 168.5,533.5C 168.179,528.305 168.513,523.305 169.5,518.5 Z"/></g>
<g><path style="opacity:1" fill="#5472ab" d="M 830.5,531.5 C 859.426,532.491 888.426,532.825 917.5,532.5C 903.171,533.167 888.671,533.5 874,533.5C 859.151,533.499 844.651,532.833 830.5,531.5 Z"/></g>
<g><path style="opacity:1" fill="#5371ab" d="M 166.5,537.5 C 197.518,536.841 228.185,537.508 258.5,539.5C 227.736,538.841 197.069,538.174 166.5,537.5 Z"/></g>
<g><path style="opacity:1" fill="#5471ab" d="M 920.5,537.5 C 890.598,538.174 860.598,538.841 830.5,539.5C 860.148,537.508 890.148,536.841 920.5,537.5 Z"/></g>
<g><path style="opacity:1" fill="#36a0d8" d="M 113.5,540.5 C 120.845,540.629 128.178,540.962 135.5,541.5C 135.5,543.5 135.5,545.5 135.5,547.5C 128.167,547.5 120.833,547.5 113.5,547.5C 113.5,545.167 113.5,542.833 113.5,540.5 Z"/></g>
<g><path style="opacity:1" fill="#f3f4f9" d="M 258.5,547.5 C 261.167,547.5 263.833,547.5 266.5,547.5C 266.5,550.167 266.5,552.833 266.5,555.5C 233.89,553.62 201.223,552.953 168.5,553.5C 176.165,682.039 232.499,782.873 337.5,856C 391.528,891.511 450.861,912.011 515.5,917.5C 516.04,918.748 516.707,919.915 517.5,921C 414.258,913.127 328.092,870.96 259,794.5C 198.386,724.362 167.053,642.695 165,549.5C 196.264,548.837 227.431,548.17 258.5,547.5 Z"/></g>
<g><path style="opacity:1" fill="#abb4d5" d="M 830.5,547.5 C 828.167,547.5 825.833,547.5 823.5,547.5C 823.5,549.833 823.5,552.167 823.5,554.5C 825.833,554.5 828.167,554.5 830.5,554.5C 828.052,555.473 825.385,555.806 822.5,555.5C 822.5,552.5 822.5,549.5 822.5,546.5C 825.385,546.194 828.052,546.527 830.5,547.5 Z"/></g>
<g><path style="opacity:1" fill="#f4f5f9" d="M 830.5,547.5 C 860.148,549.492 890.148,550.159 920.5,549.5C 920.251,629.087 896.751,701.42 850,766.5C 779.346,859.589 685.512,911.089 568.5,921C 569.743,919.846 570.743,918.512 571.5,917C 693.24,904.412 788.407,847.912 857,747.5C 895.087,688.502 915.254,623.836 917.5,553.5C 888.329,553.169 859.329,553.502 830.5,554.5C 828.167,554.5 825.833,554.5 823.5,554.5C 823.5,552.167 823.5,549.833 823.5,547.5C 825.833,547.5 828.167,547.5 830.5,547.5 Z"/></g>
<g><path style="opacity:1" fill="#37a1da" d="M 950.5,547.5 C 957.833,547.5 965.167,547.5 972.5,547.5C 972.5,549.833 972.5,552.167 972.5,554.5C 965.16,554.277 957.827,553.944 950.5,553.5C 950.5,551.5 950.5,549.5 950.5,547.5 Z"/></g>
<g><path style="opacity:1" fill="#bbc2dd" d="M 830.5,547.5 C 860.598,548.159 890.598,548.826 920.5,549.5C 890.148,550.159 860.148,549.492 830.5,547.5 Z"/></g>
<g><path style="opacity:1" fill="#37a1d9" d="M 114.5,552.5 C 121.508,552.334 128.508,552.5 135.5,553C 136.451,556.057 136.784,559.223 136.5,562.5C 129.129,562.801 121.795,563.467 114.5,564.5C 114.5,560.5 114.5,556.5 114.5,552.5 Z"/></g>
<g><path style="opacity:1" fill="#f6f7fb" d="M 258.5,566.5 C 233.856,564.509 208.856,563.843 183.5,564.5C 183.205,566.735 183.539,568.735 184.5,570.5C 194.638,680.639 243.638,768.806 331.5,835C 383.542,872.337 441.542,894.67 505.5,902C 506.167,903 506.833,904 507.5,905C 414.53,895.598 336.363,856.764 273,788.5C 215.471,723.96 184.471,648.293 180,561.5C 208.817,561.039 237.65,560.039 266.5,558.5C 266.5,561.167 266.5,563.833 266.5,566.5C 263.833,566.5 261.167,566.5 258.5,566.5 Z"/></g>
<g><path style="opacity:1" fill="#f5f6fa" d="M 902.5,565.5 C 890.671,564.833 878.671,564.5 866.5,564.5C 854.148,564.501 842.148,565.168 830.5,566.5C 827.833,566.5 825.167,566.5 822.5,566.5C 822.5,563.833 822.5,561.167 822.5,558.5C 850.444,560.192 878.444,561.025 906.5,561C 899.079,677.526 848.746,770.526 755.5,840C 702.71,877.431 644.043,898.931 579.5,904.5C 579.865,903.098 580.699,902.098 582,901.5C 699.19,886.216 789.19,828.883 852,729.5C 882.137,678.956 898.971,624.289 902.5,565.5 Z"/></g>
<g><path style="opacity:1" fill="#36a0d9" d="M 950.5,558.5 C 957.5,558.5 964.5,558.5 971.5,558.5C 971.5,560.833 971.5,563.167 971.5,565.5C 964.457,565.72 957.457,565.386 950.5,564.5C 950.5,562.5 950.5,560.5 950.5,558.5 Z"/></g>
<g><path style="opacity:1" fill="#5672ac" d="M 258.5,566.5 C 233.908,565.51 209.241,565.177 184.5,565.5C 184.5,567.167 184.5,568.833 184.5,570.5C 183.539,568.735 183.205,566.735 183.5,564.5C 208.856,563.843 233.856,564.509 258.5,566.5 Z"/></g>
<g><path style="opacity:1" fill="#5472ab" d="M 902.5,565.5 C 878.425,565.177 854.425,565.51 830.5,566.5C 842.148,565.168 854.148,564.501 866.5,564.5C 878.671,564.5 890.671,564.833 902.5,565.5 Z"/></g>
<g><path style="opacity:1" fill="#f4f5fa" d="M 258.5,575.5 C 238.674,574.503 218.674,574.17 198.5,574.5C 198.232,576.099 198.566,577.432 199.5,578.5C 215.592,699.363 276.592,789.53 382.5,849C 418.055,867.74 455.721,880.074 495.5,886C 496.167,887 496.833,888 497.5,889C 441.198,882.68 389.865,863.346 343.5,831C 254.563,767.151 205.229,680.485 195.5,571C 219.225,570.996 242.892,570.162 266.5,568.5C 266.5,571.167 266.5,573.833 266.5,576.5C 263.615,576.806 260.948,576.473 258.5,575.5 Z"/></g>
<g><path style="opacity:1" fill="#f6f7fa" d="M 890.5,571.5 C 883.488,662.693 846.488,739.526 779.5,802C 726.25,849.951 663.916,879.118 592.5,889.5C 588.856,889.286 588.523,888.119 591.5,886C 706.932,865.499 793.099,804.332 850,702.5C 870.419,662.487 882.919,620.153 887.5,575.5C 878.173,574.834 868.673,574.5 859,574.5C 849.142,574.502 839.642,575.168 830.5,576.5C 828.167,576.5 825.833,576.5 823.5,576.5C 823.5,574.167 823.5,571.833 823.5,569.5C 845.765,571.342 868.098,572.009 890.5,571.5 Z"/></g>
<g><path style="opacity:1" fill="#b7bedb" d="M 890.5,571.5 C 868.098,572.009 845.765,571.342 823.5,569.5C 823.5,571.833 823.5,574.167 823.5,576.5C 825.833,576.5 828.167,576.5 830.5,576.5C 828.052,577.473 825.385,577.806 822.5,577.5C 822.5,574.5 822.5,571.5 822.5,568.5C 845.284,569.966 867.951,570.966 890.5,571.5 Z"/></g>
<g><path style="opacity:1" fill="#38a4dc" d="M 949.5,570.5 C 956.833,570.5 964.167,570.5 971.5,570.5C 971.739,572.467 971.406,574.301 970.5,576C 963.508,576.5 956.508,576.666 949.5,576.5C 949.5,574.5 949.5,572.5 949.5,570.5 Z"/></g>
<g><path style="opacity:1" fill="#8997c3" d="M 258.5,575.5 C 238.833,575.5 219.167,575.5 199.5,575.5C 199.5,576.5 199.5,577.5 199.5,578.5C 198.566,577.432 198.232,576.099 198.5,574.5C 218.674,574.17 238.674,574.503 258.5,575.5 Z"/></g>
<g><path style="opacity:1" fill="#8695c2" d="M 887.5,575.5 C 868.424,575.18 849.424,575.513 830.5,576.5C 839.642,575.168 849.142,574.502 859,574.5C 868.673,574.5 878.173,574.834 887.5,575.5 Z"/></g>
<g><path style="opacity:1" fill="#37a2da" d="M 131.5,575.5 C 133.5,575.5 135.5,575.5 137.5,575.5C 137.5,577.833 137.5,580.167 137.5,582.5C 130.167,582.833 122.833,583.167 115.5,583.5C 115.5,581.5 115.5,579.5 115.5,577.5C 121.034,577.332 126.367,576.665 131.5,575.5 Z"/></g>
<g><path style="opacity:1" fill="#37a1d9" d="M 948.5,581.5 C 955.833,581.5 963.167,581.5 970.5,581.5C 970.759,585.24 970.426,588.906 969.5,592.5C 962.428,593.159 955.428,592.492 948.5,590.5C 948.5,587.5 948.5,584.5 948.5,581.5 Z"/></g>
<g><path style="opacity:1" fill="#37a1d9" d="M 127.5,587.5 C 131.167,587.5 134.833,587.5 138.5,587.5C 138.5,589.5 138.5,591.5 138.5,593.5C 131.176,594.261 123.842,594.927 116.5,595.5C 116.5,593.167 116.5,590.833 116.5,588.5C 120.371,588.815 124.038,588.482 127.5,587.5 Z"/></g>
<g><path style="opacity:1" fill="#37a2da" d="M 132.5,598.5 C 135.167,598.5 137.833,598.5 140.5,598.5C 140.5,600.5 140.5,602.5 140.5,604.5C 133.195,605.43 125.862,606.097 118.5,606.5C 118.5,604.5 118.5,602.5 118.5,600.5C 123.353,600.187 128.02,599.521 132.5,598.5 Z"/></g>
<g><path style="opacity:1" fill="#36a0d8" d="M 945.5,603.5 C 952.406,605.095 959.406,606.262 966.5,607C 968.345,610.787 967.178,612.954 963,613.5C 957.164,612.444 951.331,611.444 945.5,610.5C 945.5,608.167 945.5,605.833 945.5,603.5 Z"/></g>
<g><path style="opacity:1" fill="#36a0d9" d="M 135.5,609.5 C 137.5,609.5 139.5,609.5 141.5,609.5C 142.573,612.721 142.573,615.888 141.5,619C 135.5,620.5 129.5,622 123.5,623.5C 122.353,623.182 121.519,622.516 121,621.5C 120.545,618.146 120.045,614.813 119.5,611.5C 125.021,611.218 130.354,610.551 135.5,609.5 Z"/></g>
<g><path style="opacity:1" fill="#fdfefe" d="M 436.5,609.5 C 456.831,637.18 476.831,665.18 496.5,693.5C 479.376,718.914 462.376,744.414 445.5,770C 407.167,770.667 368.833,770.667 330.5,770C 366.082,716.6 401.415,663.1 436.5,609.5 Z"/></g>
<g><path style="opacity:1" fill="#37a1d9" d="M 943.5,615.5 C 950.825,616.497 958.158,617.497 965.5,618.5C 965.739,620.467 965.406,622.301 964.5,624C 957.542,624.109 950.709,623.276 944,621.5C 943.505,619.527 943.338,617.527 943.5,615.5 Z"/></g>
<g><path style="opacity:1" fill="#36a0d9" d="M 941.5,626.5 C 948.764,627.871 956.098,628.871 963.5,629.5C 963.007,631.806 962.674,634.139 962.5,636.5C 955.519,635.392 948.519,634.392 941.5,633.5C 941.5,631.167 941.5,628.833 941.5,626.5 Z"/></g>
<g><path style="opacity:1" fill="#36a0d8" d="M 142.5,631.5 C 143.675,631.281 144.675,631.614 145.5,632.5C 146.348,634.409 146.682,636.409 146.5,638.5C 139.684,639.537 133.018,641.204 126.5,643.5C 124.997,641.204 124.663,638.871 125.5,636.5C 131.324,634.965 136.991,633.299 142.5,631.5 Z"/></g>
<g><path style="opacity:1" fill="#37a2da" d="M 939.5,637.5 C 946.211,638.346 952.878,639.513 959.5,641C 960.059,641.725 960.392,642.558 960.5,643.5C 959.672,646.479 959.005,649.479 958.5,652.5C 951.673,651.114 945.006,649.114 938.5,646.5C 938.167,645.833 937.833,645.167 937.5,644.5C 938.467,642.238 939.134,639.905 939.5,637.5 Z"/></g>
<g><path style="opacity:1" fill="#37a2db" d="M 143.5,643.5 C 148.5,642.5 150.5,644.5 149.5,649.5C 142.518,650.621 135.684,652.287 129,654.5C 128.023,652.26 127.523,649.927 127.5,647.5C 133.094,646.768 138.427,645.435 143.5,643.5 Z"/></g>
<g><path style="opacity:1" fill="#359ed7" d="M 149.5,653.5 C 150.75,653.577 151.583,654.244 152,655.5C 152.798,657.259 152.631,658.926 151.5,660.5C 144.904,662.482 138.238,664.149 131.5,665.5C 131.007,663.194 130.674,660.861 130.5,658.5C 137.061,657.278 143.394,655.611 149.5,653.5 Z"/></g>
<g><path style="opacity:1" fill="#37a1d9" d="M 933.5,659.5 C 940.5,661.5 947.5,663.5 954.5,665.5C 954.167,667.5 953.833,669.5 953.5,671.5C 945.922,670.253 938.588,668.086 931.5,665C 932.244,663.185 932.911,661.352 933.5,659.5 Z"/></g>
<g><path style="opacity:1" fill="#37a2da" d="M 150.5,665.5 C 152.167,665.5 153.833,665.5 155.5,665.5C 156.523,668.393 156.523,671.226 155.5,674C 149.615,676.776 143.615,679.276 137.5,681.5C 135.565,677.696 134.232,673.696 133.5,669.5C 139.455,668.927 145.122,667.593 150.5,665.5 Z"/></g>
<g><path style="opacity:1" fill="#36a0d9" d="M 929.5,670.5 C 936.279,672.123 942.946,674.123 949.5,676.5C 950.231,678.401 950.231,680.401 949.5,682.5C 942.713,681.24 936.047,679.407 929.5,677C 929.014,674.973 929.014,672.807 929.5,670.5 Z"/></g>
<g><path style="opacity:1" fill="#37a1d9" d="M 926.5,681.5 C 933.696,683.232 940.696,685.565 947.5,688.5C 946.538,692.897 944.038,694.23 940,692.5C 934.603,690.981 929.437,688.981 924.5,686.5C 925.174,684.805 925.841,683.138 926.5,681.5 Z"/></g>
<g><path style="opacity:1" fill="#36a0d9" d="M 159.5,686.5 C 160.5,686.5 161.5,686.5 162.5,686.5C 163.333,688.752 163.333,690.919 162.5,693C 156.355,695.242 150.355,697.742 144.5,700.5C 142.28,698.449 141.614,696.116 142.5,693.5C 148.348,691.336 154.014,689.003 159.5,686.5 Z"/></g>
<g><path style="opacity:1" fill="#38a3db" d="M 922.5,691.5 C 929.51,693.893 936.51,696.393 943.5,699C 941.931,702.535 940.265,706.035 938.5,709.5C 931.817,706.495 925.483,702.995 919.5,699C 920.606,696.511 921.606,694.011 922.5,691.5 Z"/></g>
<g><path style="opacity:1" fill="#37a1d9" d="M 162.5,697.5 C 166.29,696.953 168.29,698.62 168.5,702.5C 161.786,705.96 154.786,708.626 147.5,710.5C 147.617,708.516 146.95,706.85 145.5,705.5C 151.235,702.819 156.901,700.152 162.5,697.5 Z"/></g>
<g><path style="opacity:1" fill="#37a1d9" d="M 168.5,707.5 C 169.496,707.414 170.329,707.748 171,708.5C 171.707,710.081 172.54,711.581 173.5,713C 166.874,715.931 160.208,718.764 153.5,721.5C 151.422,719.572 150.755,717.405 151.5,715C 157.393,712.768 163.059,710.268 168.5,707.5 Z"/></g>
<g><path style="opacity:1" fill="#37a1d9" d="M 913.5,712.5 C 920.423,715.295 927.09,718.628 933.5,722.5C 932.833,723.833 932.167,725.167 931.5,726.5C 930.635,727.583 929.635,727.749 928.5,727C 923.167,724.333 917.833,721.667 912.5,719C 911.42,716.701 911.754,714.534 913.5,712.5 Z"/></g>
<g><path style="opacity:1" fill="#37a2da" d="M 174.5,717.5 C 176.79,720.077 177.956,723.077 178,726.5C 172.248,729.96 166.415,733.293 160.5,736.5C 157.643,733.17 156.31,729.504 156.5,725.5C 162.59,722.783 168.59,720.116 174.5,717.5 Z"/></g>
<g><path style="opacity:1" fill="#37a2da" d="M 908.5,723.5 C 915.402,725.95 922.068,728.95 928.5,732.5C 927.833,733.833 927.167,735.167 926.5,736.5C 919.171,735.681 912.504,732.848 906.5,728C 907.044,726.415 907.711,724.915 908.5,723.5 Z"/></g>
<g><path style="opacity:1" fill="#37a0d9" d="M 902.5,733.5 C 909.957,735.56 916.957,738.727 923.5,743C 922.458,744.918 921.292,746.751 920,748.5C 914.245,745.372 908.412,742.372 902.5,739.5C 901.481,737.54 901.481,735.54 902.5,733.5 Z"/></g>
<g><path style="opacity:1" fill="#37a1da" d="M 184.5,737.5 C 186.179,739 187.512,740.833 188.5,743C 182.249,746.708 176.083,750.541 170,754.5C 168.708,752.751 167.542,750.918 166.5,749C 172.734,745.392 178.734,741.559 184.5,737.5 Z"/></g>
<g><path style="opacity:1" fill="#37a2da" d="M 897.5,743.5 C 904.282,745.807 910.782,748.807 917,752.5C 916.106,755.795 914.606,758.961 912.5,762C 906.272,759.456 900.438,755.956 895,751.5C 894.933,748.613 895.767,745.946 897.5,743.5 Z"/></g>
<g><path style="opacity:1" fill="#37a1d9" d="M 190.5,747.5 C 191.97,749.151 193.303,750.985 194.5,753C 188.998,756.585 183.331,759.919 177.5,763C 174.998,763.28 173.331,762.113 172.5,759.5C 172.977,758.522 173.643,757.689 174.5,757C 180.062,754.059 185.395,750.892 190.5,747.5 Z"/></g>
<g><path style="opacity:1" fill="#37a1d9" d="M 195.5,757.5 C 197.619,758.791 199.285,760.625 200.5,763C 194.998,766.585 189.331,769.919 183.5,773C 180.853,773.156 179.186,771.823 178.5,769C 178.833,768.5 179.167,768 179.5,767.5C 185.234,764.642 190.567,761.309 195.5,757.5 Z"/></g>
<g><path style="opacity:1" fill="#37a1d9" d="M 886.5,762.5 C 892.754,766.082 898.754,770.082 904.5,774.5C 903.876,776.754 902.543,778.421 900.5,779.5C 894.62,775.733 888.954,771.733 883.5,767.5C 884.26,765.64 885.26,763.973 886.5,762.5 Z"/></g>
<g><path style="opacity:1" fill="#37a2da" d="M 201.5,767.5 C 203.017,767.511 204.184,768.177 205,769.5C 206.751,771.212 207.418,773.212 207,775.5C 203.167,778.667 199.333,781.833 195.5,785C 193.945,786.289 192.279,786.956 190.5,787C 187.683,784.234 185.849,781.068 185,777.5C 190.647,774.267 196.147,770.933 201.5,767.5 Z"/></g>
<g><path style="opacity:1" fill="#bbc2dd" d="M 747.5,768.5 C 748.043,768.56 748.376,768.893 748.5,769.5C 710.002,770.83 671.669,770.83 633.5,769.5C 671.67,769.832 709.67,769.499 747.5,768.5 Z"/></g>
<g><path style="opacity:1" fill="#37a1d9" d="M 879.5,772.5 C 886.165,775.64 892.499,779.474 898.5,784C 897.36,785.973 896.027,787.807 894.5,789.5C 888.638,785.138 882.638,780.972 876.5,777C 877.883,775.729 878.883,774.229 879.5,772.5 Z"/></g>
<g><path style="opacity:1" fill="#36a0d8" d="M 873.5,781.5 C 879.787,784.983 885.787,788.983 891.5,793.5C 890.876,795.754 889.543,797.421 887.5,798.5C 881.384,794.792 875.718,790.626 870.5,786C 871.315,784.357 872.315,782.857 873.5,781.5 Z"/></g>
<g><path style="opacity:1" fill="#36a0d9" d="M 215.5,785.5 C 217.982,786.804 219.149,788.804 219,791.5C 213.483,795.594 208.15,799.927 203,804.5C 201.203,803.073 200.036,801.24 199.5,799C 204.711,794.283 210.044,789.783 215.5,785.5 Z"/></g>
<g><path style="opacity:1" fill="#37a2da" d="M 866.5,790.5 C 872.914,794.083 878.914,798.25 884.5,803C 882.749,805.828 880.749,808.495 878.5,811C 876.369,810.602 874.369,809.602 872.5,808C 869.299,804.464 865.799,801.297 862,798.5C 862.671,795.504 864.171,792.837 866.5,790.5 Z"/></g>
<g><path style="opacity:1" fill="#37a1d9" d="M 222.5,794.5 C 223.885,795.574 225.051,796.907 226,798.5C 226.667,799.167 226.667,799.833 226,800.5C 220.85,805.073 215.517,809.406 210,813.5C 207.885,811.938 206.885,809.938 207,807.5C 212.145,803.029 217.312,798.696 222.5,794.5 Z"/></g>
<g><path style="opacity:1" fill="#37a1d9" d="M 229.5,803.5 C 231.479,804.812 233.145,806.479 234.5,808.5C 229.688,812.144 225.021,815.978 220.5,820C 216.712,821.883 214.546,820.716 214,816.5C 219.145,812.029 224.312,807.696 229.5,803.5 Z"/></g>
<g><path style="opacity:1" fill="#36a0d9" d="M 852.5,807.5 C 857.497,812.329 862.664,816.996 868,821.5C 867.778,823.456 866.945,825.29 865.5,827C 859.861,823.063 854.361,818.563 849,813.5C 848.333,812.833 848.333,812.167 849,811.5C 850.376,810.295 851.542,808.962 852.5,807.5 Z"/></g>
<g><path style="opacity:1" fill="#37a1da" d="M 236.5,812.5 C 239.596,813.76 241.929,815.926 243.5,819C 239.018,824.649 234.018,829.816 228.5,834.5C 225.727,831.804 223.06,828.971 220.5,826C 226.09,821.719 231.423,817.219 236.5,812.5 Z"/></g>
<g><path style="opacity:1" fill="#37a0d9" d="M 844.5,816.5 C 850.294,821.123 855.961,825.956 861.5,831C 859.92,833.295 857.92,834.628 855.5,835C 850.801,829.966 845.801,825.3 840.5,821C 842.041,819.629 843.375,818.129 844.5,816.5 Z"/></g>
<g><path style="opacity:1" fill="#37a1da" d="M 836.5,825.5 C 838.255,826.072 839.922,826.906 841.5,828C 845.034,831.869 848.867,835.369 853,838.5C 852.702,841.793 850.869,843.293 847.5,843C 843.095,838.717 838.595,834.55 834,830.5C 834.058,828.565 834.891,826.898 836.5,825.5 Z"/></g>
<g><path style="opacity:1" fill="#36a0d8" d="M 252.5,828.5 C 255.073,829.879 256.573,831.879 257,834.5C 252.5,839 248,843.5 243.5,848C 240.667,847.833 239.167,846.333 239,843.5C 243.337,838.331 247.837,833.331 252.5,828.5 Z"/></g>
<g><path style="opacity:1" fill="#37a2da" d="M 828.5,833.5 C 834.71,837.365 840.377,842.031 845.5,847.5C 843.35,850.151 841.017,852.651 838.5,855C 837.365,855.749 836.365,855.583 835.5,854.5C 831.5,849.5 827.5,844.5 823.5,839.5C 825.19,837.481 826.856,835.481 828.5,833.5 Z"/></g>
<g><path style="opacity:1" fill="#37a2da" d="M 259.5,837.5 C 262.859,837.698 264.692,839.365 265,842.5C 260.5,847 256,851.5 251.5,856C 248.667,855.833 247.167,854.333 247,851.5C 251.745,847.26 255.912,842.593 259.5,837.5 Z"/></g>
<g><path style="opacity:1" fill="#37a2da" d="M 268.5,844.5 C 270.886,845.373 272.886,846.873 274.5,849C 269.291,854.041 264.291,859.208 259.5,864.5C 257.611,863.396 255.945,862.063 254.5,860.5C 259.584,855.423 264.251,850.09 268.5,844.5 Z"/></g>
<g><path style="opacity:1" fill="#36a0d9" d="M 811.5,848.5 C 813.716,849.203 815.549,850.536 817,852.5C 820.536,856.415 823.703,860.581 826.5,865C 825.022,866.478 823.522,867.978 822,869.5C 817.019,864.198 812.519,858.531 808.5,852.5C 809.524,851.148 810.524,849.815 811.5,848.5 Z"/></g>
<g><path style="opacity:1" fill="#37a2da" d="M 277.5,852.5 C 280.407,853.734 282.741,855.734 284.5,858.5C 280.526,864.307 276.36,869.974 272,875.5C 268.849,873.349 266.016,870.849 263.5,868C 267.991,862.676 272.658,857.509 277.5,852.5 Z"/></g>
<g><path style="opacity:1" fill="#37a1d9" d="M 802.5,856.5 C 803.552,856.351 804.552,856.517 805.5,857C 809.333,861.5 813.167,866 817,870.5C 817.293,873.869 815.793,875.702 812.5,876C 808.333,871.167 804.167,866.333 800,861.5C 800.058,859.565 800.891,857.898 802.5,856.5 Z"/></g>
<g><path style="opacity:1" fill="#36a0d8" d="M 793.5,863.5 C 794.552,863.351 795.552,863.517 796.5,864C 800.667,868.833 804.833,873.667 809,878.5C 809.617,879.449 809.451,880.282 808.5,881C 807.034,881.635 805.7,882.469 804.5,883.5C 799.49,878.488 794.823,873.155 790.5,867.5C 791.524,866.148 792.524,864.815 793.5,863.5 Z"/></g>
<g><path style="opacity:1" fill="#37a0d9" d="M 294.5,866.5 C 296.824,867.33 298.824,868.663 300.5,870.5C 296.519,876.475 292.186,882.142 287.5,887.5C 285.483,886.826 283.817,885.659 282.5,884C 287.137,878.543 291.137,872.709 294.5,866.5 Z"/></g>
<g><path style="opacity:1" fill="#37a2da" d="M 784.5,870.5 C 785.675,870.281 786.675,870.614 787.5,871.5C 791.714,876.759 796.048,881.926 800.5,887C 797.5,889.167 794.5,891.333 791.5,893.5C 787.017,887.881 783.017,881.881 779.5,875.5C 781.394,874.055 783.06,872.388 784.5,870.5 Z"/></g>
<g><path style="opacity:1" fill="#36a0d9" d="M 304.5,873.5 C 306.723,874.114 308.389,875.448 309.5,877.5C 305.519,883.475 301.186,889.142 296.5,894.5C 294.972,893.139 293.305,891.972 291.5,891C 295.964,885.226 300.298,879.393 304.5,873.5 Z"/></g>
<g><path style="opacity:1" fill="#37a1d9" d="M 313.5,880.5 C 315.757,880.962 317.757,881.962 319.5,883.5C 316,888.5 312.5,893.5 309,898.5C 306.258,901.104 303.758,900.771 301.5,897.5C 305.525,891.815 309.525,886.149 313.5,880.5 Z"/></g>
<g><path style="opacity:1" fill="#37a1d9" d="M 766.5,883.5 C 767.496,883.414 768.329,883.748 769,884.5C 772.375,890.085 775.875,895.585 779.5,901C 778.183,902.659 776.517,903.826 774.5,904.5C 770.017,898.881 766.017,892.881 762.5,886.5C 763.901,885.479 765.235,884.479 766.5,883.5 Z"/></g>
<g><path style="opacity:1" fill="#37a1da" d="M 323.5,886.5 C 326.274,887.723 328.941,889.223 331.5,891C 327.707,897.419 324.04,903.919 320.5,910.5C 317.301,908.136 313.968,905.97 310.5,904C 314.964,898.226 319.298,892.393 323.5,886.5 Z"/></g>
<g><path style="opacity:1" fill="#36a0d9" d="M 756.5,889.5 C 758.017,889.511 759.184,890.177 760,891.5C 763.366,896.703 766.532,902.036 769.5,907.5C 767.793,910.104 765.626,910.77 763,909.5C 759.625,903.915 756.125,898.415 752.5,893C 753.731,891.595 755.064,890.429 756.5,889.5 Z"/></g>
<g><path style="opacity:1" fill="#37a1d9" d="M 746.5,895.5 C 747.675,895.281 748.675,895.614 749.5,896.5C 752.966,901.933 756.299,907.433 759.5,913C 758.069,915.67 756.069,916.503 753.5,915.5C 750.333,910.5 747.167,905.5 744,900.5C 743.294,898.045 744.127,896.378 746.5,895.5 Z"/></g>
<g><path style="opacity:1" fill="#36a0d9" d="M 342.5,897.5 C 344.754,898.415 346.754,899.748 348.5,901.5C 345,907.833 341.5,914.167 338,920.5C 335.863,919.521 334.029,918.188 332.5,916.5C 336.114,910.271 339.447,903.938 342.5,897.5 Z"/></g>
<g><path style="opacity:1" fill="#37a2da" d="M 735.5,901.5 C 737.144,901.286 738.644,901.62 740,902.5C 742.915,907.998 746.081,913.332 749.5,918.5C 746.572,921.798 742.905,923.798 738.5,924.5C 736.232,918.04 733.566,911.707 730.5,905.5C 732.21,904.113 733.877,902.779 735.5,901.5 Z"/></g>
<g><path style="opacity:1" fill="#37a1d9" d="M 352.5,903.5 C 354.757,903.962 356.757,904.962 358.5,906.5C 355.576,913.36 351.909,919.693 347.5,925.5C 345.214,925.04 343.881,923.707 343.5,921.5C 346.495,915.51 349.495,909.51 352.5,903.5 Z"/></g>
<g><path style="opacity:1" fill="#36a0d9" d="M 362.5,908.5 C 364.966,908.899 366.966,910.065 368.5,912C 365.552,918.548 362.052,924.715 358,930.5C 355.786,930.154 354.286,928.988 353.5,927C 356.391,920.719 359.391,914.553 362.5,908.5 Z"/></g>
<g><path style="opacity:1" fill="#37a1d9" d="M 715.5,911.5 C 718.292,911.452 720.125,912.785 721,915.5C 722.688,920.74 724.855,925.74 727.5,930.5C 725.713,931.316 724.046,932.316 722.5,933.5C 718.8,927.269 715.467,920.769 712.5,914C 713.571,913.148 714.571,912.315 715.5,911.5 Z"/></g>
<g><path style="opacity:1" fill="#37a2da" d="M 373.5,913.5 C 376.47,914.538 379.137,916.038 381.5,918C 378.922,924.574 376.256,931.074 373.5,937.5C 369.888,936.361 366.554,934.694 363.5,932.5C 366.591,925.982 369.925,919.649 373.5,913.5 Z"/></g>
<g><path style="opacity:1" fill="#36a0d8" d="M 706.5,915.5 C 707.376,915.369 708.043,915.702 708.5,916.5C 711.362,922.422 714.029,928.422 716.5,934.5C 715.461,936.531 713.795,937.864 711.5,938.5C 708.106,932.21 705.106,925.71 702.5,919C 703.686,917.588 705.019,916.421 706.5,915.5 Z"/></g>
<g><path style="opacity:1" fill="#37a1d9" d="M 695.5,920.5 C 696.496,920.414 697.329,920.748 698,921.5C 700.705,927.742 703.538,933.908 706.5,940C 704.35,941.411 702.016,942.245 699.5,942.5C 697.232,936.04 694.566,929.707 691.5,923.5C 692.624,922.141 693.958,921.141 695.5,920.5 Z"/></g>
<g><path style="opacity:1" fill="#36a0d9" d="M 393.5,922.5 C 396.314,922.403 398.314,923.569 399.5,926C 397.059,932.043 395.059,938.21 393.5,944.5C 391.139,944.326 388.806,943.993 386.5,943.5C 388.632,936.438 390.965,929.438 393.5,922.5 Z"/></g>
<g><path style="opacity:1" fill="#37a2da" d="M 684.5,924.5 C 685.675,924.281 686.675,924.614 687.5,925.5C 690.167,931.5 692.833,937.5 695.5,943.5C 692.305,945.63 688.805,947.297 685,948.5C 682.324,941.308 680.158,933.974 678.5,926.5C 680.786,926.405 682.786,925.738 684.5,924.5 Z"/></g>
<g><path style="opacity:1" fill="#37a1da" d="M 404.5,926.5 C 406.757,926.962 408.757,927.962 410.5,929.5C 408.952,934.929 407.119,940.263 405,945.5C 402.814,949.332 400.314,949.499 397.5,946C 399.939,939.515 402.272,933.015 404.5,926.5 Z"/></g>
<g><path style="opacity:1" fill="#36a0d9" d="M 415.5,930.5 C 417.435,931.15 419.435,931.483 421.5,931.5C 419.572,938.282 417.239,944.949 414.5,951.5C 412.599,952.231 410.599,952.231 408.5,951.5C 410.232,944.303 412.566,937.303 415.5,930.5 Z"/></g>
<g><path style="opacity:1" fill="#37a1d9" d="M 660.5,932.5 C 662.5,932.5 664.5,932.5 666.5,932.5C 668.325,939.465 669.991,946.465 671.5,953.5C 669.326,953.92 667.326,953.92 665.5,953.5C 662.723,946.557 661.056,939.557 660.5,932.5 Z"/></g>
<g><path style="opacity:1" fill="#37a1d9" d="M 426.5,933.5 C 429.067,934.475 431.733,935.142 434.5,935.5C 433.76,942.869 432.76,950.202 431.5,957.5C 427.778,956.983 424.112,956.15 420.5,955C 419.978,954.439 419.645,953.772 419.5,953C 421.939,946.515 424.272,940.015 426.5,933.5 Z"/></g>
<g><path style="opacity:1" fill="#36a0d9" d="M 650.5,935.5 C 653.238,934.965 655.072,935.965 656,938.5C 657.819,944.441 659.319,950.441 660.5,956.5C 658.194,956.993 655.861,957.326 653.5,957.5C 652.465,950.693 650.798,944.026 648.5,937.5C 649.243,936.818 649.909,936.151 650.5,935.5 Z"/></g>
<g><path style="opacity:1" fill="#37a1d9" d="M 638.5,938.5 C 640.467,938.261 642.301,938.594 644,939.5C 646.149,946.098 647.982,952.764 649.5,959.5C 647.139,959.674 644.806,960.007 642.5,960.5C 641.465,953.693 639.798,947.026 637.5,940.5C 637.863,939.817 638.196,939.15 638.5,938.5 Z"/></g>
<g><path style="opacity:1" fill="#369fd8" d="M 447.5,939.5 C 450.93,938.79 453.263,939.957 454.5,943C 452.896,949.461 451.563,955.961 450.5,962.5C 448.194,962.007 445.861,961.674 443.5,961.5C 445.732,954.337 447.066,947.004 447.5,939.5 Z"/></g>
<g><path style="opacity:1" fill="#37a2da" d="M 631.5,940.5 C 634.354,947.573 636.687,954.906 638.5,962.5C 634.694,962.412 631.028,963.079 627.5,964.5C 626.749,963.624 626.249,962.624 626,961.5C 625.454,955.246 624.621,949.079 623.5,943C 626.379,942.454 629.046,941.621 631.5,940.5 Z"/></g>
<g><path style="opacity:1" fill="#37a2da" d="M 459.5,942.5 C 462.056,942.132 464.056,942.966 465.5,945C 464.326,951.55 462.992,958.05 461.5,964.5C 459.5,964.167 457.5,963.833 455.5,963.5C 456.081,956.347 457.414,949.347 459.5,942.5 Z"/></g>
<g><path style="opacity:1" fill="#37a1d9" d="M 470.5,944.5 C 472.199,944.34 473.866,944.506 475.5,945C 475.921,951.539 475.088,958.039 473,964.5C 471.582,966.363 469.749,966.863 467.5,966C 466.978,965.439 466.645,964.772 466.5,964C 468.235,957.563 469.568,951.063 470.5,944.5 Z"/></g>
<g><path style="opacity:1" fill="#37a0d9" d="M 604.5,945.5 C 606.5,945.5 608.5,945.5 610.5,945.5C 611.686,952.803 612.686,960.137 613.5,967.5C 611.167,967.5 608.833,967.5 606.5,967.5C 605.739,960.176 605.073,952.842 604.5,945.5 Z"/></g>
<g><path style="opacity:1" fill="#37a1d9" d="M 481.5,946.5 C 484.249,946.274 486.916,946.607 489.5,947.5C 490.637,954.832 490.637,962.166 489.5,969.5C 485.837,969.048 482.17,968.548 478.5,968C 478.043,967.586 477.709,967.086 477.5,966.5C 479.475,959.959 480.808,953.292 481.5,946.5 Z"/></g>
<g><path style="opacity:1" fill="#37a2da" d="M 592.5,947.5 C 594.833,947.5 597.167,947.5 599.5,947.5C 600.712,954.443 601.379,961.443 601.5,968.5C 599.738,968.357 598.071,968.691 596.5,969.5C 594.735,962.241 593.401,954.908 592.5,947.5 Z"/></g>
<g><path style="opacity:1" fill="#369fd8" d="M 581.5,948.5 C 583.833,948.5 586.167,948.5 588.5,948.5C 589.261,955.824 589.927,963.158 590.5,970.5C 588.167,970.5 585.833,970.5 583.5,970.5C 583.27,963.123 582.604,955.79 581.5,948.5 Z"/></g>
<g><path style="opacity:1" fill="#37a1d9" d="M 504.5,948.5 C 506.435,949.15 508.435,949.483 510.5,949.5C 510.167,956.833 509.833,964.167 509.5,971.5C 507.139,971.326 504.806,970.993 502.5,970.5C 503.347,963.188 504.013,955.854 504.5,948.5 Z"/></g>
<g><path style="opacity:1" fill="#37a1da" d="M 567.5,949.5 C 570.5,949.5 573.5,949.5 576.5,949.5C 577.686,956.803 578.686,964.137 579.5,971.5C 575.5,971.5 571.5,971.5 567.5,971.5C 567.5,964.167 567.5,956.833 567.5,949.5 Z"/></g>
<g><path style="opacity:1" fill="#359cd5" d="M 515.5,949.5 C 516.833,949.5 518.167,949.5 519.5,949.5C 519.5,956.833 519.5,964.167 519.5,971.5C 517.833,971.5 516.167,971.5 514.5,971.5C 514.418,964.142 514.752,956.809 515.5,949.5 Z"/></g>
<g><path style="opacity:1" fill="#369fd8" d="M 526.5,950.5 C 527.833,950.5 529.167,950.5 530.5,950.5C 530.5,957.833 530.5,965.167 530.5,972.5C 528.833,972.5 527.167,972.5 525.5,972.5C 526.248,965.191 526.582,957.858 526.5,950.5 Z"/></g>
<g><path style="opacity:1" fill="#359ed6" d="M 538.5,950.5 C 539.833,950.5 541.167,950.5 542.5,950.5C 542.5,957.833 542.5,965.167 542.5,972.5C 540.833,972.5 539.167,972.5 537.5,972.5C 537.629,965.155 537.962,957.822 538.5,950.5 Z"/></g>
<g><path style="opacity:1" fill="#39a5dd" d="M 547.5,950.5 C 549.5,950.5 551.5,950.5 553.5,950.5C 553.5,957.833 553.5,965.167 553.5,972.5C 551.5,972.5 549.5,972.5 547.5,972.5C 547.5,965.167 547.5,957.833 547.5,950.5 Z"/></g>
</svg>
